<?xml version="1.0" encoding="UTF-8" ?>
<!DOCTYPE svg PUBLIC "-//W3C//DTD SVG 1.1//EN" "http://www.w3.org/Graphics/SVG/1.1/DTD/svg11.dtd">
<svg width="100%" height="100%" viewBox="0 0 240 240" version="1.1" xmlns="http://www.w3.org/2000/svg">
<g id="#2986c5ff">
<!-- fill="#1179bf" opacity="1.00"-->
<path opacity="0" d=" M 142.30 72.31 C 156.52 67.25 172.97 69.25 185.69 77.33 C 181.42 84.74 177.31 92.25 173.12 99.71 C 168.74 97.37 164.03 95.09 158.94 95.32 C 150.35 95.18 141.68 99.88 137.45 107.43 C 133.16 114.45 133.24 123.70 137.06 130.91 C 140.97 138.60 149.28 143.71 157.88 143.92 C 166.21 144.45 174.35 140.11 179.07 133.32 C 172.21 133.26 165.35 133.28 158.50 133.33 C 158.49 124.72 158.49 116.11 158.51 107.50 C 174.83 107.49 191.15 107.48 207.46 107.49 C 207.40 118.35 208.28 129.63 204.16 139.94 C 199.44 153.24 187.83 163.57 174.31 167.34 C 163.87 170.09 152.53 170.45 142.28 166.75 C 128.91 162.27 117.79 151.66 112.41 138.67 C 108.19 128.20 107.31 116.26 110.58 105.41 C 114.96 90.13 127.24 77.37 142.30 72.31 Z" />
<!-- fill="#1179bf" -->
<path opacity="0" d=" M 52.67 73.65 C 58.01 70.96 64.11 70.46 70.01 70.49 C 80.49 70.54 90.98 70.49 101.46 70.51 C 101.46 78.67 101.47 86.83 101.47 94.99 C 90.32 95.01 79.17 94.96 68.02 94.98 C 64.88 94.90 61.48 95.87 59.60 98.56 C 57.36 101.27 57.71 104.98 57.62 108.26 C 72.24 108.26 86.86 108.24 101.47 108.26 C 101.48 116.01 101.50 123.75 101.47 131.49 C 86.84 131.50 72.21 131.48 57.59 131.50 C 57.60 135.01 57.77 138.94 60.52 141.51 C 62.56 144.03 65.99 144.25 68.98 144.26 C 79.81 144.25 90.64 144.25 101.46 144.24 C 101.44 152.44 101.57 160.64 101.38 168.84 C 90.57 168.64 79.76 168.82 68.95 168.76 C 61.65 168.59 54.19 167.03 48.01 163.00 C 38.80 156.83 32.68 146.12 32.58 134.97 C 32.50 125.00 32.59 115.03 32.54 105.07 C 32.18 91.84 40.52 78.86 52.67 73.65 Z" />
</g>
<g id="#ffffffff">
<path fill="#ffffff" opacity="1.00" d=" M 94.94 13.14 C 103.06 12.40 110.95 10.12 119.02 9.03 C 125.07 8.30 130.99 10.23 137.02 10.00 C 142.72 10.03 148.63 9.60 154.09 11.53 C 160.50 13.82 167.49 14.24 173.58 17.42 C 181.73 21.61 189.51 26.58 196.52 32.49 C 199.98 35.43 202.89 38.99 204.99 43.03 C 206.35 45.88 209.21 47.42 211.29 49.66 C 221.32 61.28 228.76 75.02 233.63 89.55 C 235.98 96.45 235.99 103.79 236.92 110.95 C 237.13 118.99 236.98 127.05 236.64 135.08 C 234.44 143.87 231.89 152.64 227.61 160.68 C 224.42 168.63 220.48 176.32 215.17 183.08 C 211.73 187.30 207.75 191.05 204.48 195.42 C 200.51 200.43 195.62 204.61 190.53 208.44 C 182.58 214.39 174.40 220.26 165.19 224.08 C 156.74 227.09 147.77 228.19 138.95 229.58 C 128.93 231.09 118.98 227.99 108.94 228.46 C 102.53 227.96 95.96 228.43 89.79 226.28 C 84.99 224.71 79.98 223.99 75.05 222.98 C 68.31 221.33 62.30 217.75 56.08 214.82 C 50.52 212.22 47.28 206.56 44.55 201.34 C 46.25 201.22 48.07 200.52 49.71 201.32 C 56.43 204.24 62.78 207.95 69.47 210.93 C 64.61 206.65 59.94 202.18 55.72 197.27 C 47.48 187.82 36.21 180.88 30.46 169.40 C 26.99 160.62 26.46 151.07 24.02 142.01 C 21.00 128.81 20.95 115.01 23.37 101.71 C 22.54 100.68 21.70 99.66 20.86 98.64 C 21.88 93.82 22.71 87.25 27.95 85.28 C 27.81 84.97 27.55 84.36 27.41 84.05 C 25.95 85.34 24.40 86.55 22.86 87.75 C 20.17 85.58 21.08 81.92 21.40 78.95 C 23.72 67.80 30.17 58.08 37.25 49.38 C 44.99 39.27 56.02 32.57 65.95 24.93 C 69.76 23.09 73.78 21.69 77.44 19.53 C 82.82 16.34 88.91 14.64 94.94 13.14 M 142.30 72.31 C 127.24 77.37 114.96 90.13 110.58 105.41 C 107.31 116.26 108.19 128.20 112.41 138.67 C 117.79 151.66 128.91 162.27 142.28 166.75 C 152.53 170.45 163.87 170.09 174.31 167.34 C 187.83 163.57 199.44 153.24 204.16 139.94 C 208.28 129.63 207.40 118.35 207.46 107.49 C 191.15 107.48 174.83 107.49 158.51 107.50 C 158.49 116.11 158.49 124.72 158.50 133.33 C 165.35 133.28 172.21 133.26 179.07 133.32 C 174.35 140.11 166.21 144.45 157.88 143.92 C 149.28 143.71 140.97 138.60 137.06 130.91 C 133.24 123.70 133.16 114.45 137.45 107.43 C 141.68 99.88 150.35 95.18 158.94 95.32 C 164.03 95.09 168.74 97.37 173.12 99.71 C 177.31 92.25 181.42 84.74 185.69 77.33 C 172.97 69.25 156.52 67.25 142.30 72.31 M 52.67 73.65 C 40.52 78.86 32.18 91.84 32.54 105.07 C 32.59 115.03 32.50 125.00 32.58 134.97 C 32.68 146.12 38.80 156.83 48.01 163.00 C 54.19 167.03 61.65 168.59 68.95 168.76 C 79.76 168.82 90.57 168.64 101.38 168.84 C 101.57 160.64 101.44 152.44 101.46 144.24 C 90.64 144.25 79.81 144.25 68.98 144.26 C 65.99 144.25 62.56 144.03 60.52 141.51 C 57.77 138.94 57.60 135.01 57.59 131.50 C 72.21 131.48 86.84 131.50 101.47 131.49 C 101.50 123.75 101.48 116.01 101.47 108.26 C 86.86 108.24 72.24 108.26 57.62 108.26 C 57.71 104.98 57.36 101.27 59.60 98.56 C 61.48 95.87 64.88 94.90 68.02 94.98 C 79.17 94.96 90.32 95.01 101.47 94.99 C 101.47 86.83 101.46 78.67 101.46 70.51 C 90.98 70.49 80.49 70.54 70.01 70.49 C 64.11 70.46 58.01 70.96 52.67 73.65 Z" />
<path fill="#ffffff" opacity="1.00" d=" M 5.72 92.63 C 7.42 89.38 8.56 85.22 12.07 83.46 C 14.45 83.84 14.79 87.09 14.45 89.07 C 13.54 92.31 12.35 95.50 12.27 98.91 C 9.91 107.39 10.79 116.29 10.88 124.98 C 12.65 132.62 13.61 140.48 16.27 147.90 C 19.07 156.20 21.35 164.78 25.50 172.54 C 24.71 173.07 23.91 173.60 23.11 174.14 C 15.97 168.39 11.86 159.93 8.47 151.62 C 4.22 141.39 2.58 130.12 3.57 119.10 C 4.00 113.81 3.28 108.47 4.33 103.24 C 4.99 99.71 3.92 95.92 5.72 92.63 Z" />
</g>
</svg>
